<svg width="512" height="512" viewBox="0 0 512 512" fill="none" xmlns="http://www.w3.org/2000/svg">
<path fill-rule="evenodd" clip-rule="evenodd" d="M217.041 352.427C270.296 373.944 330.911 348.214 352.427 294.959C373.944 241.704 348.214 181.089 294.959 159.573C241.704 138.056 181.089 163.786 159.573 217.041C138.056 270.296 163.786 330.911 217.041 352.427ZM208.05 374.68C273.595 401.161 348.198 369.495 374.68 303.95C401.161 238.405 369.495 163.802 303.95 137.32C238.405 110.839 163.802 142.505 137.32 208.05C110.839 273.595 142.505 348.198 208.05 374.68Z" fill="#2D9CDB"/>
<path d="M187.83 231.14C190.536 230.02 193.336 228.76 196.23 227.36C199.216 225.867 202.11 224.28 204.91 222.6C207.71 220.827 210.37 219.007 212.89 217.14C215.503 215.18 217.836 213.127 219.89 210.98L234.45 210.98L234.45 308L213.59 308L213.59 238.14C210.79 240.007 207.663 241.733 204.21 243.32C200.756 244.813 197.396 246.12 194.13 247.24L187.83 231.14Z" fill="#2D9CDB"/>
<path d="M286.86 255.92C289.007 255.92 291.247 255.733 293.58 255.36C295.913 254.893 297.64 254.287 298.76 253.54L298.76 252.28C298.76 251.907 298.76 251.533 298.76 251.16C298.853 250.787 298.9 250.46 298.9 250.18C298.807 246.82 298.527 243.693 298.06 240.8C297.593 237.813 296.8 235.247 295.68 233.1C294.56 230.86 293.02 229.133 291.06 227.92C289.193 226.613 286.86 225.96 284.06 225.96C281.82 225.96 279.86 226.427 278.18 227.36C276.5 228.293 275.147 229.507 274.12 231C273.093 232.493 272.3 234.127 271.74 235.9C271.273 237.673 271.04 239.4 271.04 241.08C271.04 246.12 272.253 249.853 274.68 252.28C277.2 254.707 281.26 255.92 286.86 255.92ZM297.08 269.5C295.12 270.433 292.927 271.133 290.5 271.6C288.167 271.973 286.16 272.16 284.48 272.16C278.413 272.16 273.233 271.46 268.94 270.06C264.647 268.567 261.1 266.513 258.3 263.9C255.593 261.193 253.587 257.973 252.28 254.24C250.973 250.507 250.32 246.4 250.32 241.92C250.32 238.187 250.927 234.36 252.14 230.44C253.447 226.52 255.453 222.973 258.16 219.8C260.867 216.533 264.273 213.873 268.38 211.82C272.58 209.673 277.62 208.6 283.5 208.6C295.54 208.6 304.593 212.333 310.66 219.8C316.82 227.173 319.9 237.813 319.9 251.72C319.9 260.867 318.687 268.94 316.26 275.94C313.927 282.94 310.24 288.82 305.2 293.58C300.253 298.34 293.907 301.98 286.16 304.5C278.413 306.927 269.22 308.187 258.58 308.28C258.487 305.293 258.347 302.4 258.16 299.6C257.973 296.8 257.787 293.907 257.6 290.92C262.92 290.827 267.727 290.453 272.02 289.8C276.313 289.053 280.093 287.887 283.36 286.3C286.627 284.62 289.38 282.427 291.62 279.72C293.953 277.013 295.773 273.607 297.08 269.5Z" fill="#2D9CDB"/>
<path fill-rule="evenodd" clip-rule="evenodd" d="M433.233 340.549C439.378 343.032 446.372 340.063 448.854 333.918C451.337 327.773 448.368 320.779 442.223 318.297C436.078 315.814 429.085 318.783 426.602 324.928C424.119 331.072 427.088 338.066 433.233 340.549ZM424.242 362.801C442.677 370.25 463.659 361.343 471.107 342.909C478.555 324.474 469.648 303.492 451.214 296.044C432.779 288.596 411.797 297.503 404.349 315.937C396.901 334.372 405.808 355.353 424.242 362.801Z" fill="#2D9CDB"/>
<path d="M356.922 283.833L431.097 313.801L422.107 336.054L347.932 306.085L356.922 283.833Z" fill="#2D9CDB"/>
<path fill-rule="evenodd" clip-rule="evenodd" d="M69.7767 193.703C63.6319 191.221 60.6631 184.227 63.1458 178.082C65.6284 171.937 72.6224 168.968 78.7673 171.451C84.9121 173.934 87.8809 180.928 85.3982 187.072C82.9155 193.217 75.9215 196.186 69.7767 193.703ZM60.7861 215.956C42.3516 208.508 33.4453 187.526 40.8934 169.091C48.3414 150.657 69.3233 141.75 87.7578 149.198C106.192 156.646 115.099 177.628 107.651 196.063C100.203 214.497 79.2206 223.404 60.7861 215.956Z" fill="#2D9CDB"/>
<path d="M164.068 205.915L89.8935 175.946L80.9029 198.199L155.078 228.167L164.068 205.915Z" fill="#2D9CDB"/>
<path fill-rule="evenodd" clip-rule="evenodd" d="M321.537 441.108C324.127 447.208 331.172 450.055 337.272 447.465C343.373 444.875 346.219 437.831 343.629 431.73C341.04 425.63 333.995 422.783 327.895 425.373C321.794 427.962 318.948 435.007 321.537 441.108ZM299.445 450.485C307.214 468.787 328.348 477.326 346.65 469.557C364.951 461.789 373.49 440.654 365.722 422.353C357.953 404.051 336.819 395.512 318.517 403.281C300.215 411.049 291.677 432.184 299.445 450.485Z" fill="#2D9CDB"/>
<path d="M307.682 347.044L338.941 420.684L316.849 430.062L285.59 356.421L307.682 347.044Z" fill="#2D9CDB"/>
<path fill-rule="evenodd" clip-rule="evenodd" d="M168.371 80.2698C165.781 74.1692 168.627 67.1245 174.728 64.535C180.829 61.9454 187.873 64.7917 190.463 70.8923C193.052 76.9928 190.206 84.0376 184.106 86.6271C178.005 89.2166 170.96 86.3704 168.371 80.2698ZM146.279 89.6474C138.51 71.3457 147.049 50.2115 165.35 42.4429C183.652 34.6743 204.786 43.213 212.555 61.5147C220.324 79.8164 211.785 100.951 193.483 108.719C175.181 116.488 154.047 107.949 146.279 89.6474Z" fill="#2D9CDB"/>
<path d="M226.41 155.579L195.152 81.9383L173.059 91.3159L204.318 164.956L226.41 155.579Z" fill="#2D9CDB"/>
<path fill-rule="evenodd" clip-rule="evenodd" d="M171.451 433.233C168.968 439.378 171.937 446.372 178.082 448.854C184.227 451.337 191.221 448.368 193.703 442.223C196.186 436.078 193.217 429.084 187.072 426.602C180.928 424.119 173.934 427.088 171.451 433.233ZM149.199 424.242C141.75 442.677 150.657 463.659 169.091 471.107C187.526 478.555 208.508 469.648 215.956 451.214C223.404 432.779 214.497 411.797 196.063 404.349C177.628 396.901 156.647 405.808 149.199 424.242Z" fill="#2D9CDB"/>
<path d="M228.167 356.922L198.199 431.097L175.946 422.107L205.915 347.932L228.167 356.922Z" fill="#2D9CDB"/>
<path fill-rule="evenodd" clip-rule="evenodd" d="M318.297 69.7767C320.779 63.6318 327.773 60.6631 333.918 63.1457C340.063 65.6284 343.032 72.6224 340.549 78.7672C338.066 84.9121 331.072 87.8808 324.928 85.3982C318.783 82.9155 315.814 75.9215 318.297 69.7767ZM296.044 60.7861C303.492 42.3516 324.474 33.4453 342.909 40.8933C361.343 48.3414 370.25 69.3233 362.802 87.7578C355.354 106.192 334.372 115.099 315.937 107.651C297.503 100.203 288.596 79.2206 296.044 60.7861Z" fill="#2D9CDB"/>
<path d="M306.085 164.068L336.054 89.8934L313.801 80.9029L283.833 155.078L306.085 164.068Z" fill="#2D9CDB"/>
<path fill-rule="evenodd" clip-rule="evenodd" d="M70.8923 321.537C64.7917 324.127 61.9455 331.171 64.535 337.272C67.1246 343.373 74.1693 346.219 80.2698 343.629C86.3704 341.04 89.2167 333.995 86.6271 327.895C84.0376 321.794 76.9929 318.948 70.8923 321.537ZM61.5148 299.445C43.213 307.214 34.6743 328.348 42.4429 346.65C50.2115 364.951 71.3457 373.49 89.6474 365.721C107.949 357.953 116.488 336.819 108.719 318.517C100.951 300.215 79.8165 291.677 61.5148 299.445Z" fill="#2D9CDB"/>
<path d="M164.956 307.682L91.3159 338.941L81.9384 316.848L155.579 285.59L164.956 307.682Z" fill="#2D9CDB"/>
<path fill-rule="evenodd" clip-rule="evenodd" d="M431.73 168.371C437.831 165.781 444.875 168.627 447.465 174.728C450.055 180.828 447.208 187.873 441.108 190.463C435.007 193.052 427.962 190.206 425.373 184.105C422.783 178.005 425.63 170.96 431.73 168.371ZM422.353 146.279C440.654 138.51 461.789 147.049 469.557 165.35C477.326 183.652 468.787 204.786 450.485 212.555C432.184 220.323 411.049 211.785 403.281 193.483C395.512 175.181 404.051 154.047 422.353 146.279Z" fill="#2D9CDB"/>
<path d="M356.421 226.41L430.062 195.152L420.684 173.059L347.044 204.318L356.421 226.41Z" fill="#2D9CDB"/>
</svg>
